<svg width="26" height="26" viewBox="0 0 26 26" fill="none" xmlns="http://www.w3.org/2000/svg">
<path d="M13 23.5625C10.1987 23.5625 7.51204 22.4497 5.53118 20.4688C3.55033 18.488 2.4375 15.8013 2.4375 13C2.4375 10.1987 3.55033 7.51204 5.53118 5.53118C7.51204 3.55033 10.1987 2.4375 13 2.4375C15.8013 2.4375 18.488 3.55033 20.4688 5.53118C22.4497 7.51204 23.5625 10.1987 23.5625 13C23.5625 15.8013 22.4497 18.488 20.4688 20.4688C18.488 22.4497 15.8013 23.5625 13 23.5625ZM13 0C9.55219 0 6.24558 1.36964 3.80761 3.80761C1.36964 6.24558 0 9.55219 0 13C0 16.4478 1.36964 19.7544 3.80761 22.1924C6.24558 24.6304 9.55219 26 13 26C16.4478 26 19.7544 24.6304 22.1924 22.1924C24.6304 19.7544 26 16.4478 26 13C26 9.55219 24.6304 6.24558 22.1924 3.80761C19.7544 1.36964 16.4478 0 13 0ZM11.375 13C11.375 13.431 11.5462 13.8443 11.851 14.149C12.1557 14.4538 12.569 14.625 13 14.625C13.431 14.625 13.8443 14.4538 14.149 14.149C14.4538 13.8443 14.625 13.431 14.625 13C14.625 12.569 14.4538 12.1557 14.149 11.851C13.8443 11.5462 13.431 11.375 13 11.375C12.569 11.375 12.1557 11.5462 11.851 11.851C11.5462 12.1557 11.375 12.569 11.375 13ZM8.125 11.375C7.69402 11.375 7.2807 11.5462 6.97595 11.851C6.67121 12.1557 6.5 12.569 6.5 13C6.5 13.431 6.67121 13.8443 6.97595 14.149C7.2807 14.4538 7.69402 14.625 8.125 14.625C8.55598 14.625 8.9693 14.4538 9.27405 14.149C9.57879 13.8443 9.75 13.431 9.75 13C9.75 12.569 9.57879 12.1557 9.27405 11.851C8.9693 11.5462 8.55598 11.375 8.125 11.375ZM16.25 13C16.25 13.431 16.4212 13.8443 16.726 14.149C17.0307 14.4538 17.444 14.625 17.875 14.625C18.306 14.625 18.7193 14.4538 19.024 14.149C19.3288 13.8443 19.5 13.431 19.5 13C19.5 12.569 19.3288 12.1557 19.024 11.851C18.7193 11.5462 18.306 11.375 17.875 11.375C17.444 11.375 17.0307 11.5462 16.726 11.851C16.4212 12.1557 16.25 12.569 16.25 13Z" fill="#B62100"/>
</svg>
