<svg width="27" height="24" viewBox="0 0 27 24" fill="none" xmlns="http://www.w3.org/2000/svg">
<path d="M24.0117 0.375C25.3828 0.375 26.4492 1.49219 26.4492 2.8125V20.6875C26.4492 22.0586 25.332 23.125 24.0117 23.125H2.88672C1.56641 23.125 0.5 22.0586 0.5 20.6875V2.8125C0.5 1.49219 1.56641 0.375 2.88672 0.375H24.0117ZM6.13672 19.4688L6.08594 17.0312C6.08594 16.8281 5.88281 16.625 5.67969 16.625H3.29297C3.03906 16.625 2.88672 16.8281 2.88672 17.0312V19.4688C2.88672 19.7227 3.03906 19.875 3.29297 19.875H5.73047C5.93359 19.875 6.13672 19.7227 6.13672 19.4688ZM6.13672 12.9688H6.08594V10.5312C6.08594 10.3281 5.88281 10.125 5.67969 10.125H3.29297C3.03906 10.125 2.88672 10.3281 2.88672 10.5312V12.9688C2.88672 13.2227 3.03906 13.375 3.29297 13.375H5.73047C5.93359 13.375 6.13672 13.2227 6.13672 12.9688ZM6.13672 6.46875L6.08594 4.03125C6.08594 3.82812 5.88281 3.625 5.67969 3.625H3.29297C3.03906 3.625 2.88672 3.82812 2.88672 4.03125V6.46875C2.88672 6.72266 3.03906 6.875 3.29297 6.875H5.73047C5.93359 6.875 6.13672 6.72266 6.13672 6.46875ZM18.3242 19.0625V14.1875C18.3242 13.7812 17.918 13.375 17.5117 13.375H9.38672C8.92969 13.375 8.57422 13.7812 8.57422 14.1875V19.0625C8.57422 19.5195 8.92969 19.875 9.38672 19.875H17.5117C17.918 19.875 18.3242 19.5195 18.3242 19.0625ZM18.3242 9.3125V4.4375C18.3242 4.03125 17.918 3.625 17.5117 3.625H9.38672C8.92969 3.625 8.57422 4.03125 8.57422 4.4375V9.3125C8.57422 9.76953 8.92969 10.125 9.38672 10.125H17.5117C17.918 10.125 18.3242 9.76953 18.3242 9.3125ZM24.0117 19.4688H24.0625V17.0312C24.0625 16.8281 23.8594 16.625 23.6562 16.625H21.2188C21.0156 16.625 20.8125 16.8281 20.8125 17.0312V19.4688C20.8125 19.7227 20.9648 19.875 21.2188 19.875H23.6055C23.8086 19.875 24.0117 19.7227 24.0117 19.4688ZM24.0117 12.9688V10.5312C24.0117 10.3281 23.8086 10.125 23.6055 10.125H21.2188C20.9648 10.125 20.8125 10.3281 20.8125 10.5312V12.9688C20.8125 13.2227 20.9648 13.375 21.2188 13.375H23.6055C23.8086 13.375 24.0117 13.2227 24.0117 12.9688ZM24.0117 6.46875H23.9609V4.03125C23.9609 3.82812 23.7578 3.625 23.5547 3.625H21.168C20.9648 3.625 20.8125 3.82812 20.8125 4.03125V6.46875C20.8125 6.72266 20.9648 6.875 21.2188 6.875H23.6055C23.8086 6.875 24.0117 6.72266 24.0117 6.46875Z" fill="#B62100"/>
</svg>
