<svg width="30" height="27" viewBox="0 0 30 27" fill="none" xmlns="http://www.w3.org/2000/svg">
<path d="M29.1992 13.25C29.1992 14.1641 28.4375 14.875 27.5742 14.875H25.9492L26 23C26 23.1523 26 23.3047 26 23.4062V24.2188C26 25.3867 25.0859 26.25 23.9688 26.25H23.1562C23.0547 26.25 23.0039 26.25 22.9531 26.25C22.9023 26.25 22.8008 26.25 22.75 26.25H19.9062C18.7383 26.25 17.875 25.3867 17.875 24.2188V19.75C17.875 18.8867 17.1133 18.125 16.25 18.125H13C12.0859 18.125 11.375 18.8867 11.375 19.75V24.2188C11.375 25.3867 10.4609 26.25 9.34375 26.25H6.5C6.39844 26.25 6.34766 26.25 6.24609 26.25C6.19531 26.25 6.14453 26.25 6.09375 26.25H5.28125C4.11328 26.25 3.25 25.3867 3.25 24.2188V18.5312C3.25 18.5312 3.25 18.4805 3.25 18.4297V14.875H1.625C0.710938 14.875 0 14.1641 0 13.25C0 12.793 0.152344 12.3867 0.507812 12.0312L13.5078 0.707031C13.8633 0.351562 14.2695 0.25 14.625 0.25C14.9805 0.25 15.3867 0.402344 15.6914 0.65625L28.6406 12.0312C29.0469 12.3867 29.25 12.793 29.1992 13.25Z" fill="#B62100"/>
</svg>
