<svg width="22" height="20" viewBox="0 0 22 20" fill="none" xmlns="http://www.w3.org/2000/svg">
<path d="M0.924507 0C0.412176 0 0 0.417969 0 0.9375C0 1.45703 0.412176 1.875 0.924507 1.875H2.67722C2.8236 1.875 2.95072 1.98047 2.98153 2.12891L4.96922 12.7148C5.21961 14.043 6.36369 15 7.69267 15H18.7983C19.3106 15 19.7228 14.582 19.7228 14.0625C19.7228 13.543 19.3106 13.125 18.7983 13.125H7.69267C7.24967 13.125 6.86831 12.8047 6.78357 12.3633L6.57555 11.25H17.6889C18.9447 11.25 20.0425 10.3984 20.3661 9.16797L21.9455 3.21875C22.2113 2.22656 21.4717 1.25 20.4586 1.25H4.62638C4.27584 0.5 3.52853 0 2.67722 0H0.924507ZM5.05012 3.125H20.0579L18.5826 8.67969C18.4747 9.08984 18.1088 9.375 17.6889 9.375H6.22501L5.05012 3.125ZM6.77972 20C7.2701 20 7.74041 19.8025 8.08716 19.4508C8.43392 19.0992 8.62873 18.6223 8.62873 18.125C8.62873 17.6277 8.43392 17.1508 8.08716 16.7992C7.74041 16.4475 7.2701 16.25 6.77972 16.25C6.28933 16.25 5.81902 16.4475 5.47226 16.7992C5.12551 17.1508 4.9307 17.6277 4.9307 18.125C4.9307 18.6223 5.12551 19.0992 5.47226 19.4508C5.81902 19.8025 6.28933 20 6.77972 20ZM19.7228 18.125C19.7228 17.6277 19.528 17.1508 19.1812 16.7992C18.8345 16.4475 18.3642 16.25 17.8738 16.25C17.3834 16.25 16.9131 16.4475 16.5663 16.7992C16.2196 17.1508 16.0248 17.6277 16.0248 18.125C16.0248 18.6223 16.2196 19.0992 16.5663 19.4508C16.9131 19.8025 17.3834 20 17.8738 20C18.3642 20 18.8345 19.8025 19.1812 19.4508C19.528 19.0992 19.7228 18.6223 19.7228 18.125Z" fill="white"/>
</svg>
