<svg width="100" height="100" viewBox="0 0 100 100" fill="none" xmlns="http://www.w3.org/2000/svg">
<path d="M97.0404 17.0779C100.945 13.1735 100.945 6.83273 97.0404 2.92831C93.136 -0.976105 86.7952 -0.976105 82.8908 2.92831L50 35.8504L17.0779 2.95955C13.1735 -0.94487 6.83273 -0.94487 2.92831 2.95955C-0.976105 6.86397 -0.976105 13.2047 2.92831 17.1092L35.8504 50L2.95955 82.9221C-0.944869 86.8265 -0.944869 93.1673 2.95955 97.0717C6.86397 100.976 13.2047 100.976 17.1092 97.0717L50 64.1496L82.9221 97.0404C86.8265 100.945 93.1673 100.945 97.0717 97.0404C100.976 93.136 100.976 86.7952 97.0717 82.8908L64.1496 50L97.0404 17.0779Z" fill="black"/>
</svg>
