<?xml version="1.0" encoding="UTF-8"?>
<svg id="Layer_2" data-name="Layer 2" xmlns="http://www.w3.org/2000/svg" width="290.82mm" height="290.82mm" viewBox="0 0 824.39 824.39">
  <defs>
    <style>
      .cls-1 {
        fill: #231f20;
      }

      .cls-1, .cls-2 {
        stroke-width: 0px;
      }

      .cls-2 {
        fill: #010101;
      }
    </style>
  </defs>
  <g id="Layer_1-2" data-name="Layer 1">
    <path class="cls-2" d="M492.19,284.69c0-44.18-35.82-80-80-80s-80,35.82-80,80,35.82,80,80,80,80-35.82,80-80ZM284.19,284.69c0-70.69,57.31-128,128-128s128,57.31,128,128-57.31,128-128,128-128-57.31-128-128ZM237.49,620.69h349.4c-8.9-63.3-63.3-112-129-112h-91.4c-65.7,0-120.1,48.7-129,112ZM188.19,638.99c0-98.5,79.8-178.3,178.3-178.3h91.4c98.5,0,178.3,79.8,178.3,178.3,0,16.4-13.3,29.7-29.7,29.7H217.89c-16.4,0-29.7-13.3-29.7-29.7Z"/>
    <path class="cls-1" d="M412.19,48c49.19,0,96.88,9.62,141.75,28.6,43.36,18.34,82.32,44.61,115.78,78.07,33.46,33.46,59.73,72.42,78.07,115.78,18.98,44.87,28.6,92.56,28.6,141.75s-9.62,96.88-28.6,141.75c-18.34,43.36-44.61,82.32-78.07,115.78-33.46,33.46-72.42,59.73-115.78,78.07-44.87,18.98-92.56,28.6-141.75,28.6s-96.88-9.62-141.75-28.6c-43.36-18.34-82.32-44.61-115.78-78.07-33.46-33.46-59.73-72.42-78.07-115.78-18.98-44.87-28.6-92.56-28.6-141.75s9.62-96.88,28.6-141.75c18.34-43.36,44.61-82.32,78.07-115.78s72.42-59.73,115.78-78.07c44.87-18.98,92.56-28.6,141.75-28.6M412.19,0C184.54,0,0,184.54,0,412.19s184.54,412.19,412.19,412.19,412.19-184.55,412.19-412.19S639.84,0,412.19,0h0Z"/>
  </g>
</svg>