<svg width="31" height="27" viewBox="0 0 31 27" fill="none" xmlns="http://www.w3.org/2000/svg">
<path d="M26.1367 11.625C25.9336 11.625 25.7305 11.625 25.5273 11.625C24.207 11.625 23.0391 11.0664 22.2266 10.1523C21.4141 11.0664 20.2461 11.625 18.9258 11.625C17.6055 11.625 16.3867 11.0664 15.5742 10.1523C14.8125 11.0664 13.5938 11.625 12.2734 11.625C10.9531 11.625 9.78516 11.0664 8.97266 10.1523C8.16016 11.0664 6.99219 11.625 5.67188 11.625C5.46875 11.625 5.26562 11.625 5.0625 11.625C2.21875 11.2188 0.898438 7.91797 2.42188 5.53125L5.31641 0.960938C5.57031 0.503906 6.02734 0.25 6.53516 0.25H24.6641C25.1719 0.25 25.6289 0.503906 25.8828 0.960938L28.7773 5.53125C30.3008 7.91797 28.9805 11.2188 26.1367 11.625ZM26.3398 13.1992C26.543 13.1992 26.7969 13.1484 27 13.0977V23C27 24.8281 25.5273 26.25 23.75 26.25H7.5C5.67188 26.25 4.25 24.8281 4.25 23V13.0977C4.40234 13.1484 4.60547 13.1992 4.80859 13.1992H4.85938C5.11328 13.25 5.36719 13.25 5.67188 13.25C6.28125 13.25 6.89062 13.1992 7.5 12.9961V19.75H23.75V12.9961C24.3086 13.1992 24.918 13.25 25.5273 13.25C25.832 13.25 26.0859 13.25 26.3398 13.1992Z" fill="white"/>
</svg>
